<svg id="Layer_1" enable-background="new 0 0 512 512" height="512" viewBox="0 0 512 512" width="512" xmlns="http://www.w3.org/2000/svg"><g><path d="m464 86v368h-320v-448h240z" fill="#fff"/><path d="m144 438h320v16h-320z" fill="#dce1e7"/><path d="m384 86h80v16h-80z" fill="#dce1e7"/><path d="m464 86h-80v-80" fill="#95a4b6"/><g><circle cx="144" cy="410" fill="#b9c2cf" r="96"/><path d="m144 490c-50.325 0-91.6-38.725-95.665-88-.218 2.638-.334 5.306-.334 8 0 53.02 42.981 96 96 96s96-42.98 96-96c0-2.694-.117-5.362-.335-8-4.066 49.275-45.341 88-95.666 88z" fill="#95a4b6"/><g fill="#012d4a"><path d="m470 83.515-83.515-83.515h-248.485v308.181c-53.46 3.117-96 47.591-96 101.819 0 56.243 45.757 102 102 102 38.087 0 71.36-20.987 88.876-52h237.124zm-80-63.03 59.515 59.515h-59.515zm-246 479.515c-49.626 0-90-40.374-90-90s40.374-90 90-90 90 40.374 90 90-40.374 90-90 90zm94.653-52c4.734-11.75 7.347-24.575 7.347-38 0-54.228-42.54-98.702-96-101.819v-296.181h228v80h80v356z"/><path d="m240 64h112v12h-112z"/><path d="m192 64h32v12h-32z"/><path d="m240 96h80v12h-80z"/><path d="m192 96h32v12h-32z"/><path d="m288 128h128v12h-128z"/><path d="m240 128h32v12h-32z"/><path d="m240 160h128v12h-128z"/><path d="m192 160h32v12h-32z"/><path d="m240 272h176v12h-176z"/><path d="m288 240h80v12h-80z"/><path d="m192 272h32v12h-32z"/><path d="m240 208h176v12h-176z"/><path d="m192 208h32v12h-32z"/><path d="m240 240h32v12h-32z"/><path d="m288 304h80v12h-80z"/><path d="m240 304h32v12h-32z"/><path d="m240 336h32v12h-32z"/><path d="m288 336h128v12h-128z"/><path d="m107.758 373.758-36.243 36.242 36.243 36.242 8.484-8.484-27.757-27.758 27.757-27.758z"/><path d="m180.242 373.758-8.484 8.484 27.757 27.758-27.757 27.758 8.484 8.484 36.243-36.242z"/><path d="m92 404h104v11.999h-104z" transform="matrix(.385 -.923 .923 .385 -289.846 385.227)"/></g></g></g></svg>