<svg width="58" height="58" viewBox="0 0 58 58" fill="none" xmlns="http://www.w3.org/2000/svg">
<g clip-path="url(#clip0)">
<path d="M45.9167 0H12.0833C5.41092 0 0 5.41092 0 12.0833V45.9167C0 52.5891 5.41092 58 12.0833 58H45.9167C52.5915 58 58 52.5891 58 45.9167V12.0833C58 5.41092 52.5915 0 45.9167 0ZM19.3333 45.9167H12.0833V19.3333H19.3333V45.9167ZM15.7083 16.269C13.3738 16.269 11.4792 14.3598 11.4792 12.006C11.4792 9.65217 13.3738 7.743 15.7083 7.743C18.0428 7.743 19.9375 9.65217 19.9375 12.006C19.9375 14.3598 18.0453 16.269 15.7083 16.269ZM48.3333 45.9167H41.0833V32.3737C41.0833 24.2343 31.4167 24.8506 31.4167 32.3737V45.9167H24.1667V19.3333H31.4167V23.5988C34.7903 17.3493 48.3333 16.8877 48.3333 29.5824V45.9167Z" fill="url(#paint0_linear)"/>
<rect x="51.7935" y="48.2343" width="47" height="41" transform="rotate(-179.426 51.7935 48.2343)" fill="#3ABFB9"/>
<rect x="51.7935" y="48.2343" width="47" height="41" transform="rotate(-179.426 51.7935 48.2343)" fill="url(#paint1_linear)"/>
<path d="M27.1641 33.2324C26.9004 35.4883 26.0654 37.2314 24.6592 38.4619C23.2627 39.6826 21.4023 40.293 19.0781 40.293C16.5586 40.293 14.5371 39.3896 13.0137 37.583C11.5 35.7764 10.7432 33.3594 10.7432 30.332V28.2812C10.7432 26.2988 11.0947 24.5557 11.7979 23.0518C12.5107 21.5479 13.5166 20.3955 14.8154 19.5947C16.1143 18.7842 17.6182 18.3789 19.3271 18.3789C21.5928 18.3789 23.4092 19.0137 24.7764 20.2832C26.1436 21.543 26.9395 23.291 27.1641 25.5273H24.3369C24.0928 23.8281 23.5605 22.5977 22.7402 21.8359C21.9297 21.0742 20.792 20.6934 19.3271 20.6934C17.5303 20.6934 16.1191 21.3574 15.0938 22.6855C14.0781 24.0137 13.5703 25.9033 13.5703 28.3545V30.4199C13.5703 32.7344 14.0537 34.5752 15.0205 35.9424C15.9873 37.3096 17.3398 37.9932 19.0781 37.9932C20.6406 37.9932 21.8369 37.6416 22.667 36.9385C23.5068 36.2256 24.0635 34.9902 24.3369 33.2324H27.1641ZM38.0771 36.2646L44.1709 18.6719H47.2471L39.3369 40H36.8467L28.9512 18.6719H32.0127L38.0771 36.2646Z" fill="white"/>
</g>
<defs>
<linearGradient id="paint0_linear" x1="29" y1="0" x2="29" y2="58" gradientUnits="userSpaceOnUse">
<stop stop-color="#3AA9D1"/>
<stop offset="1" stop-color="#3AC0B7"/>
</linearGradient>
<linearGradient id="paint1_linear" x1="75.2935" y1="48.2343" x2="75.2935" y2="89.2343" gradientUnits="userSpaceOnUse">
<stop stop-color="#3ABEBA"/>
<stop offset="1" stop-color="#3AABD0"/>
</linearGradient>
<clipPath id="clip0">
<rect width="58" height="58" fill="white"/>
</clipPath>
</defs>
</svg>
