<svg id="Layer_1" enable-background="new 0 0 512 512" height="512" viewBox="0 0 512 512" width="512" xmlns="http://www.w3.org/2000/svg"><g><path d="m122 6h320v448h-320z" fill="#b9c2cf"/><path d="m122 438h320v16h-320z" fill="#95a4b6" transform="matrix(-1 0 0 -1 564 892)"/><path d="m70 426v-368h320v448h-240z" fill="#fff"/><path d="m150 490h240v16h-240z" fill="#dce1e7"/><path d="m70 426h80v80" fill="#95a4b6"/><g><path d="m118 186h224v160h-224z" fill="#dce1e7"/><path d="m118 330h224v16h-224z" fill="#b9c2cf"/><path d="m214 346v-54h32v54" fill="#b9c2cf"/><path d="m214 346v-16h32v16" fill="#95a4b6"/><path d="m214 314v-22h32v22" fill="#fff"/><path d="m246 292 16-16-32-32-32 32 16 16" fill="#95a4b6"/><path d="m150 218h32v32h-32z" fill="#fff"/><path d="m278 218h32v32h-32z" fill="#fff"/><g fill="#012d4a"><path d="m448 0h-332v52h-52v376.485l83.515 83.515h248.485v-52h52zm-304 491.515-59.515-59.515h59.515zm240 8.485h-228v-80h-80v-356h308zm52-52h-40v-396h-268v-40h308z"/><path d="m118 116h96v12h-96z"/><path d="m118 148h96v12h-96z"/><path d="m246 116h96v12h-96z"/><path d="m246 148h96v12h-96z"/><path d="m348 180h-236v172h236zm-112 96v-17.515l17.515 17.515-9.999 10h-27.031l-9.999-10 17.514-17.515v17.515zm4 32h-20v-10h20zm-20 12h20v20h-20zm116 20h-84v-45.516l18.485-18.484-36-36h37.515v16h44v-44h-44v16h-84v-16h-44v44h44v-16h37.515l-36 36 18.485 18.484v45.516h-84v-148h212zm-52-96v-20h20v20zm-108-20v20h-20v-20z"/><path d="m118 372h224v12h-224z"/><path d="m182 404h160v12h-160z"/><path d="m182 436h160v12h-160z"/></g></g></g></svg>