<?xml version="1.0" standalone="no"?>
<!DOCTYPE svg PUBLIC "-//W3C//DTD SVG 20010904//EN"
 "http://www.w3.org/TR/2001/REC-SVG-20010904/DTD/svg10.dtd">
<svg version="1.0" xmlns="http://www.w3.org/2000/svg"
 width="300.000000pt" height="224.000000pt" viewBox="0 0 300.000000 224.000000"
 preserveAspectRatio="xMidYMid meet">
<metadata>
Created by potrace 1.10, written by Peter Selinger 2001-2011
</metadata>
<g transform="translate(0.000000,224.000000) scale(0.100000,-0.100000)"
fill="#000000" stroke="none">
<path d="M833 1852 c-73 -219 -133 -396 -142 -417 -5 -11 -22 -58 -37 -105
-14 -47 -31 -91 -37 -97 -5 -7 -6 -13 -3 -13 4 0 2 -8 -3 -18 -7 -14 -5 -21
10 -30 27 -17 28 -16 22 21 -3 21 2 49 15 78 29 67 47 115 76 209 15 47 33
101 40 120 8 19 22 63 32 98 9 34 21 62 26 62 4 0 8 8 8 18 0 9 12 49 25 87
14 39 25 71 25 73 0 6 46 -10 105 -38 75 -35 335 -150 339 -150 5 0 192 -87
233 -108 l32 -16 -20 -27 c-10 -15 -19 -32 -19 -38 0 -6 -3 -11 -8 -11 -4 0
-16 -19 -27 -42 -11 -24 -21 -46 -23 -50 -2 -5 2 -8 10 -8 7 0 24 21 38 48 13
26 37 69 53 96 15 27 27 49 25 50 -2 1 -52 24 -113 51 -60 27 -114 52 -119 57
-6 4 -15 8 -22 8 -6 0 -58 22 -115 49 -57 26 -142 65 -189 86 -47 21 -109 48
-138 61 -29 13 -54 24 -55 24 -1 0 -21 -58 -44 -128z"/>
<path d="M1194 1706 c-18 -44 -19 -45 -39 -27 -11 9 -32 22 -46 28 -23 10 -30
9 -46 -10 -21 -24 -22 -27 -91 -182 -26 -60 -55 -125 -63 -142 -7 -18 -16 -33
-19 -33 -3 0 -25 18 -50 40 -48 42 -64 48 -83 27 -18 -19 -47 -74 -47 -89 0
-7 24 -29 52 -48 29 -19 61 -45 71 -57 18 -22 42 -32 35 -14 -3 9 -84 80 -117
103 -20 14 -20 15 1 61 l22 46 62 -54 c64 -56 74 -63 74 -45 0 9 158 370 166
379 3 3 61 -17 72 -25 2 -1 -45 -109 -104 -240 -70 -156 -108 -252 -108 -276
-1 -21 0 -38 1 -38 1 0 11 19 21 43 196 437 263 589 259 593 -3 3 -13 -15 -23
-40z"/>
<path d="M1245 1742 c13 -13 286 -134 291 -130 6 7 -176 94 -261 124 -22 8
-35 11 -30 6z"/>
<path d="M1955 1736 c-22 -69 -33 -122 -27 -127 6 -6 92 -29 106 -29 3 0 6 11
6 25 0 17 -6 25 -17 25 -29 0 -43 14 -37 37 5 19 9 20 36 11 30 -11 47 -1 48
28 0 16 -110 45 -115 30z"/>
<path d="M2117 1694 c-12 -12 -8 -49 8 -70 21 -27 18 -37 -6 -24 -23 13 -24
13 -33 -16 -5 -18 0 -22 48 -36 55 -15 55 -15 61 9 3 13 -1 36 -10 53 -16 30
-9 40 13 18 8 -8 14 -5 22 16 13 35 14 33 -19 39 -16 3 -39 9 -53 12 -13 3
-27 3 -31 -1z m43 -44 c0 -5 -2 -10 -4 -10 -3 0 -8 5 -11 10 -3 6 -1 10 4 10
6 0 11 -4 11 -10z"/>
<path d="M1196 1636 c-8 -14 -45 -91 -81 -173 -57 -127 -64 -151 -54 -170 6
-12 18 -19 25 -16 8 3 25 -2 38 -11 17 -11 26 -12 28 -4 6 18 28 -1 28 -24 0
-16 -4 -19 -22 -14 -48 13 -98 18 -121 12 -24 -6 -67 -70 -54 -82 3 -3 14 10
24 31 17 36 19 37 58 30 22 -3 59 -9 83 -12 l42 -6 0 41 0 40 -65 13 c-65 13
-72 17 -56 34 8 9 109 233 132 292 8 23 9 23 41 5 18 -10 69 -33 113 -52 44
-18 84 -37 89 -41 5 -4 -1 -24 -14 -43 -12 -20 -17 -36 -11 -36 6 0 19 17 30
38 15 29 17 41 7 52 -13 17 -72 50 -88 50 -8 0 -118 49 -149 66 -4 2 -14 -7
-23 -20z"/>
<path d="M2276 1634 c-5 -17 -1 -35 9 -51 19 -28 13 -42 -10 -23 -12 10 -16 9
-21 -6 -4 -11 -9 -22 -11 -26 -3 -5 91 -38 110 -38 13 0 14 47 2 67 -20 30
-19 36 5 28 15 -5 22 -1 29 17 8 21 5 24 -32 35 -22 7 -48 15 -57 18 -13 4
-19 -1 -24 -21z m44 -24 c0 -5 -2 -10 -4 -10 -3 0 -8 5 -11 10 -3 6 -1 10 4
10 6 0 11 -4 11 -10z m10 -70 c0 -5 -5 -10 -11 -10 -5 0 -7 5 -4 10 3 6 8 10
11 10 2 0 4 -4 4 -10z"/>
<path d="M1527 1593 c-45 -81 -74 -143 -59 -123 27 32 74 121 69 127 -3 2 -7
1 -10 -4z"/>
<path d="M1727 1422 c-29 -165 -34 -217 -17 -174 10 23 46 186 56 252 3 19 9
39 13 43 8 8 89 -12 321 -78 69 -20 174 -49 233 -64 60 -16 110 -31 113 -33 4
-4 -15 -68 -33 -108 -3 -8 -7 -17 -8 -20 -1 -3 -4 -12 -8 -20 -3 -8 -13 -35
-21 -60 -8 -25 -42 -117 -76 -205 -34 -88 -70 -185 -81 -215 l-19 -55 -85 -2
c-46 -2 -95 2 -107 7 -17 6 2 9 67 10 50 0 95 4 101 8 7 4 17 26 24 49 7 23
16 40 20 38 4 -3 8 1 7 8 0 6 1 21 2 32 1 17 3 18 12 5 9 -13 10 -12 5 2 -3
10 5 39 16 65 12 26 21 52 20 56 -1 4 7 26 18 49 11 23 20 46 20 52 0 5 8 28
19 50 10 23 30 75 43 116 14 41 29 83 33 93 4 9 3 17 -2 17 -5 0 -61 -138
-124 -307 l-116 -308 -131 -3 c-73 -1 -132 1 -132 4 0 4 5 21 11 38 l11 31
102 -2 c55 -2 106 0 111 5 12 8 31 54 81 191 32 88 33 96 17 113 -9 10 -26 18
-39 18 -13 0 -25 4 -29 9 -5 9 20 17 80 25 29 4 67 64 63 100 -3 28 -9 32 -72
54 -37 13 -90 26 -117 29 -39 5 -48 9 -45 22 16 54 18 74 7 67 -6 -4 -11 -15
-11 -24 -1 -41 -13 -44 -96 -22 -150 41 -161 39 -166 -40 l-3 -44 55 -27 55
-26 -63 -8 c-39 -4 -65 -12 -69 -21 -3 -8 -19 -14 -37 -14 -46 0 -56 -16 -58
-90 -1 -36 -4 3 -7 87 -6 151 -6 152 -35 182 -40 41 -80 51 -211 51 -130 -1
-202 -20 -222 -60 -7 -14 -13 -55 -13 -92 l0 -68 120 0 c100 0 120 -2 120 -15
0 -13 -27 -15 -187 -15 -184 0 -187 0 -232 -27 -25 -15 -177 -108 -337 -208
l-292 -182 35 -44 c19 -24 46 -59 61 -78 15 -18 31 -41 36 -50 5 -9 22 -32 38
-51 35 -43 38 -46 68 -90 14 -19 28 -37 31 -40 3 -3 43 -54 89 -115 46 -60 88
-109 94 -109 6 1 64 18 130 38 65 20 124 36 132 36 7 0 21 11 32 25 11 14 50
57 86 96 l65 70 144 3 c121 2 150 6 177 22 51 30 69 61 71 129 l3 60 -124 0
c-104 0 -125 3 -128 15 -2 14 20 15 180 12 101 -2 194 1 208 6 17 6 47 3 109
-15 62 -17 112 -23 181 -23 l96 0 21 63 c12 34 43 116 68 182 26 66 62 163 82
215 19 52 46 127 61 165 14 39 30 76 35 82 6 9 5 14 -4 18 -31 10 -706 195
-715 195 -5 0 -21 -71 -37 -158z m-125 -30 c26 -13 50 -33 57 -49 7 -15 15
-81 18 -148 4 -107 3 -124 -15 -155 -11 -19 -25 -34 -32 -32 -6 1 -9 -2 -6 -7
10 -15 -38 -21 -177 -20 -114 0 -142 -3 -179 -19 -50 -23 -82 -55 -98 -97 -13
-31 -14 -105 -4 -139 6 -17 2 -18 -41 -13 -104 15 -145 56 -145 146 0 28 -5
62 -12 76 -9 20 -9 38 1 78 34 140 48 147 320 150 143 2 165 4 175 19 22 36
-9 47 -130 49 l-112 1 4 32 c2 17 5 48 7 69 2 20 8 42 14 48 43 43 274 50 355
11z m480 -63 c123 -34 224 -63 226 -64 2 -2 -13 -39 -34 -83 0 -1 -54 -10
-120 -20 l-119 -18 92 -24 c51 -13 97 -26 102 -29 5 -4 -13 -67 -41 -144 l-51
-137 -102 0 c-114 0 -125 5 -125 61 0 69 -25 98 -27 32 -2 -52 6 -85 17 -78 6
4 10 -8 10 -28 0 -43 -34 -90 -58 -79 -9 4 -104 5 -211 2 -170 -4 -195 -7
-205 -22 -8 -13 -8 -23 0 -35 10 -15 28 -18 115 -19 103 -1 103 -1 110 -27 9
-32 -3 -43 -22 -21 -26 31 -58 36 -90 13 -40 -28 -39 -69 2 -103 l31 -26 -137
0 c-75 0 -145 5 -156 10 -13 8 -19 7 -19 -1 0 -6 10 -13 22 -17 21 -5 21 -6 2
-13 -37 -15 -52 -10 -47 14 3 14 -3 29 -16 41 -18 17 -21 31 -22 115 0 53 -4
105 -9 116 -6 13 -9 -11 -7 -72 1 -50 -1 -95 -6 -99 -4 -4 -7 0 -7 8 0 9 -15
39 -34 67 l-35 51 35 0 c31 0 34 2 35 33 1 17 1 50 0 72 -3 48 28 100 76 128
28 16 53 19 175 18 163 0 203 9 233 56 11 17 28 34 38 36 14 4 17 17 17 71 l0
66 45 0 c31 0 45 4 45 14 0 13 131 36 208 36 58 0 33 15 -68 39 -55 14 -104
27 -109 30 -12 8 -2 91 10 91 5 0 109 -28 231 -61z m-1113 -276 c-11 -37 -19
-78 -19 -90 0 -16 -4 -21 -15 -17 -8 4 -15 2 -15 -3 0 -4 -17 -17 -37 -28 -21
-11 -40 -22 -43 -25 -10 -11 -65 -44 -69 -41 -2 1 -7 -1 -10 -6 -3 -5 -40 -30
-81 -56 -41 -25 -83 -54 -92 -63 -21 -20 -15 -34 54 -119 27 -33 63 -77 79
-98 18 -22 37 -36 45 -33 8 3 11 0 7 -9 -7 -20 51 -108 82 -125 22 -12 36 -11
106 10 70 20 85 21 103 10 19 -12 20 -12 7 3 -11 14 -7 22 32 61 24 25 56 59
71 76 l26 32 19 -23 c17 -21 18 -27 5 -51 -13 -24 -12 -27 1 -22 26 11 16 -7
-42 -73 -49 -57 -80 -79 -118 -87 -19 -4 -130 -38 -153 -47 -55 -22 -62 -16
-194 159 -70 92 -134 176 -143 187 -105 138 -134 180 -128 186 4 4 67 44 138
88 72 45 139 88 150 96 10 8 23 15 27 15 5 0 23 14 42 30 33 31 142 100 156
100 4 0 10 7 14 15 3 8 7 15 9 15 3 0 -4 -30 -14 -67z m-12 -215 c-2 -8 -55
-45 -116 -82 -61 -38 -111 -71 -111 -73 0 -3 10 -19 22 -36 12 -18 22 -33 24
-35 5 -7 213 132 208 140 -6 10 -61 -17 -91 -45 -13 -11 -26 -18 -29 -14 -3 3
-20 -7 -37 -23 -31 -28 -51 -30 -61 -5 -3 9 10 22 34 36 22 13 40 26 40 30 0
3 15 13 33 20 17 7 37 18 43 24 49 44 50 44 63 9 14 -40 64 -84 95 -84 17 0
30 -16 61 -77 22 -43 40 -81 40 -84 0 -3 -28 -36 -61 -73 -59 -63 -66 -68
-152 -95 l-91 -28 -44 56 -44 57 33 22 c42 28 44 28 69 -4 20 -25 22 -26 65
-14 29 8 59 27 83 53 l38 39 -27 52 -27 53 -63 -41 c-150 -97 -197 -126 -199
-124 -1 2 -38 51 -82 109 l-80 106 176 111 176 110 9 -38 c5 -21 6 -45 3 -52z
m83 -273 c0 -22 -47 -65 -86 -78 -39 -13 -41 -12 -65 13 l-24 26 27 22 c14 12
31 22 36 22 6 0 12 4 14 8 2 5 17 16 33 24 28 14 31 13 47 -6 10 -12 18 -25
18 -31z m578 23 c17 -17 15 -53 -3 -68 -38 -31 -96 27 -65 65 15 18 51 20 68
3z"/>
<path d="M1297 1375 c-11 -7 -24 -12 -30 -11 -7 2 -9 1 -5 -1 4 -3 4 -14 0
-26 -11 -33 -8 -52 10 -70 17 -18 88 -24 88 -8 0 5 7 17 16 25 13 13 13 20 2
43 -7 15 -24 33 -37 39 l-24 12 29 5 29 4 -30 1 c-16 1 -38 -5 -48 -13z m53
-35 c39 -39 -13 -96 -59 -64 -25 18 -27 41 -4 66 21 23 38 23 63 -2z"/>
<path d="M1279 1141 c12 -8 51 -4 51 5 0 2 -15 4 -32 4 -23 0 -29 -3 -19 -9z"/>
<path d="M2100 1216 c0 -2 9 -6 20 -9 11 -3 20 -1 20 4 0 5 -9 9 -20 9 -11 0
-20 -2 -20 -4z"/>
<path d="M2160 1200 c8 -5 24 -9 35 -9 20 0 20 0 0 9 -11 5 -27 9 -35 9 -13 1
-13 0 0 -9z"/>
<path d="M1823 1173 c-19 -7 -16 -23 5 -23 24 -1 52 -24 52 -43 0 -22 19 -32
26 -13 12 32 -50 91 -83 79z"/>
<path d="M2021 1164 c0 -11 3 -14 6 -6 3 7 2 16 -1 19 -3 4 -6 -2 -5 -13z"/>
<path d="M2006 1124 c-4 -9 -4 -19 -1 -22 2 -3 7 3 11 12 4 9 4 19 1 22 -2 3
-7 -3 -11 -12z"/>
<path d="M1910 1011 c0 -62 2 -70 25 -85 15 -10 46 -16 80 -16 54 0 55 1 70
37 34 81 36 77 -67 106 -52 15 -97 27 -101 27 -4 0 -7 -31 -7 -69z m53 33 c12
-4 13 -13 5 -42 -5 -20 -10 -43 -10 -49 -1 -14 -17 -18 -19 -5 -1 4 -3 28 -4
55 -3 47 0 52 28 41z m95 -21 c26 -6 27 -12 8 -57 -12 -29 -19 -34 -56 -38
l-41 -4 6 34 c12 63 24 85 43 77 9 -4 27 -10 40 -12z"/>
<path d="M1695 994 c-56 -68 -82 -75 -249 -73 -96 1 -150 -3 -168 -11 -47 -22
-77 -85 -62 -133 8 -26 25 -9 18 19 -3 13 -2 24 4 24 5 0 9 8 8 17 0 9 14 27
33 40 32 22 43 23 183 23 158 0 169 3 224 52 27 24 63 88 50 88 -2 0 -21 -21
-41 -46z"/>
<path d="M780 939 c-22 -18 -22 -19 -3 -10 12 6 25 16 28 21 9 15 3 12 -25
-11z"/>
<path d="M1161 384 c-18 -19 -31 -37 -29 -40 3 -2 19 14 37 36 40 50 35 52 -8
4z"/>
<path d="M790 791 c0 -6 4 -13 10 -16 6 -3 7 1 4 9 -7 18 -14 21 -14 7z"/>
<path d="M890 632 c6 -13 14 -21 18 -18 3 4 -2 14 -12 24 -18 16 -18 16 -6 -6z"/>
<path d="M1010 441 c0 -6 4 -13 10 -16 6 -3 7 1 4 9 -7 18 -14 21 -14 7z"/>
<path d="M1215 1445 c-15 -36 -24 -69 -21 -73 8 -7 29 23 32 46 1 7 10 24 18
38 15 22 18 23 44 10 32 -16 92 -30 92 -21 0 5 -124 65 -134 65 -2 0 -16 -29
-31 -65z"/>
<path d="M1278 1433 c7 -3 16 -2 19 1 4 3 -2 6 -13 5 -11 0 -14 -3 -6 -6z"/>
<path d="M2110 1427 c9 -10 263 -78 279 -74 15 3 -21 16 -139 50 -61 18 -148
33 -140 24z"/>
<path d="M771 1226 c-9 -11 -5 -25 20 -65 18 -28 36 -51 41 -51 10 0 78 43 78
50 0 3 -4 11 -9 19 -7 11 -13 11 -32 -3 -32 -22 -33 -21 -53 24 -19 43 -27 48
-45 26z"/>
<path d="M712 1188 c-7 -7 -12 -25 -12 -41 0 -24 -3 -28 -17 -22 -34 14 -48
15 -62 6 -11 -7 -8 -19 19 -63 18 -29 33 -54 35 -56 1 -1 10 0 19 4 20 8 21
28 1 44 -22 18 -19 33 4 20 29 -15 31 -13 31 23 l1 32 15 -28 c8 -15 12 -32 9
-37 -3 -5 5 -16 17 -24 32 -22 48 -19 20 4 -21 17 -21 20 -5 28 15 9 14 15
-17 66 -37 60 -40 62 -58 44z m-42 -88 c0 -5 -4 -10 -10 -10 -5 0 -10 5 -10
10 0 6 5 10 10 10 6 0 10 -4 10 -10z"/>
<path d="M533 1076 c-48 -30 -51 -35 -38 -52 11 -15 16 -17 26 -6 19 18 22 16
43 -23 19 -34 39 -44 51 -26 3 5 -4 26 -16 46 -20 33 -20 37 -5 48 14 10 15
15 4 29 -12 16 -17 15 -65 -16z"/>
<path d="M441 1021 c-10 -7 -11 -13 -1 -31 10 -18 9 -24 -1 -31 -20 -13 -29
-11 -35 6 -7 17 -30 20 -39 6 -4 -8 39 -91 62 -120 2 -3 11 3 20 12 14 13 14
18 3 32 -12 14 -11 18 1 26 20 12 27 11 37 -7 7 -13 13 -14 30 -5 22 12 22 12
-15 66 -38 58 -40 60 -62 46z"/>
</g>
</svg>
